name analog
datacolumns 19
datarows 72
range 0.4455000000000002 0.4810000000000002
endheader
time	ground_force_vx	ground_force_vy	ground_force_vz	ground_force_px	ground_force_py	ground_force_pz	l_ground_force_vx	l_ground_force_vy	l_ground_force_vz	l_ground_force_px	l_ground_force_py	l_ground_force_pz	ground_torque_x	ground_torque_y	ground_torque_z	l_ground_torque_x	l_ground_torque_y	l_ground_torque_z
0.4455000000000002	-0.0	-0.0	-0.0	-0.7284890413284302	-3.9809043407440186	-782.2349853515625	-0.0	-0.0	-0.0	-0.0	-0.0	-0.0	-0.0	-0.0	-0.0	-0.0	-0.0	-0.0
0.4460000000000002	-0.0	-0.0	-0.0	-1.0556437969207764	-3.580085039138794	-779.1738891601562	-0.0	-0.0	-0.0	-0.0	-0.0	-0.0	-0.0	-0.0	-0.0	-0.0	-0.0	-0.0
0.4465000000000002	-0.0	-0.0	-0.0	-1.1891613006591797	-3.758877754211426	-775.936279296875	-0.0	-0.0	-0.0	-0.0	-0.0	-0.0	-0.0	-0.0	-0.0	-0.0	-0.0	-0.0
0.4470000000000002	-0.0	-0.0	-0.0	-1.2039299011230469	-5.970913887023926	-774.2330932617188	-0.0	-0.0	-0.0	-0.0	-0.0	-0.0	-0.0	-0.0	-0.0	-0.0	-0.0	-0.0
0.4475000000000002	-0.0	-0.0	-0.0	-1.3532371520996094	-7.233363151550293	-776.2298583984375	-0.0	-0.0	-0.0	-0.0	-0.0	-0.0	-0.0	-0.0	-0.0	-0.0	-0.0	-0.0
0.4480000000000002	-0.0	-0.0	-0.0	-2.0232043266296387	-8.363127708435059	-780.587646484375	-0.0	-0.0	-0.0	-0.0	-0.0	-0.0	-0.0	-0.0	-0.0	-0.0	-0.0	-0.0
0.4485000000000002	-0.0	-0.0	-0.0	-1.9778518676757808	-9.550048828125	-783.533935546875	-0.0	-0.0	-0.0	-0.0	-0.0	-0.0	-0.0	-0.0	-0.0	-0.0	-0.0	-0.0
0.4490000000000002	-0.0	-0.0	-0.0	-2.0823936462402344	-9.878211975097656	-785.8253173828125	-0.0	-0.0	-0.0	-0.0	-0.0	-0.0	-0.0	-0.0	-0.0	-0.0	-0.0	-0.0
0.4495000000000002	-0.0	-0.0	-0.0	-2.7348451614379883	-11.242928504943848	-785.94677734375	-0.0	-0.0	-0.0	-0.0	-0.0	-0.0	-0.0	-0.0	-0.0	-0.0	-0.0	-0.0
0.4500000000000002	-0.0	-0.0	-0.0	-1.876716136932373	-11.082977294921877	-788.5286865234375	-0.0	-0.0	-0.0	-0.0	-0.0	-0.0	-0.0	-0.0	-0.0	-0.0	-0.0	-0.0
0.4505000000000002	-0.0	-0.0	-0.0	-2.3504185676574707	-11.703377723693848	-789.8328247070312	-0.0	-0.0	-0.0	-0.0	-0.0	-0.0	-0.0	-0.0	-0.0	-0.0	-0.0	-0.0
0.4510000000000002	-0.0	-0.0	-0.0	-2.078925132751465	-11.765213012695312	-789.5416259765625	-0.0	-0.0	-0.0	-0.0	-0.0	-0.0	-0.0	-0.0	-0.0	-0.0	-0.0	-0.0
0.4515000000000002	-0.0	-0.0	-0.0	-2.230262756347656	-11.424283027648926	-790.0634765625	-0.0	-0.0	-0.0	-0.0	-0.0	-0.0	-0.0	-0.0	-0.0	-0.0	-0.0	-0.0
0.4520000000000002	-0.0	-0.0	-0.0	-2.051841735839844	-11.114789962768556	-791.6243286132812	-0.0	-0.0	-0.0	-0.0	-0.0	-0.0	-0.0	-0.0	-0.0	-0.0	-0.0	-0.0
0.4525000000000002	-0.0	-0.0	-0.0	-1.952153205871582	-10.438725471496582	-791.3515014648438	-0.0	-0.0	-0.0	-0.0	-0.0	-0.0	-0.0	-0.0	-0.0	-0.0	-0.0	-0.0
0.4530000000000002	-0.0	-0.0	-0.0	-2.2460644245147705	-9.96681785583496	-792.9293823242188	-0.0	-0.0	-0.0	-0.0	-0.0	-0.0	-0.0	-0.0	-0.0	-0.0	-0.0	-0.0
0.4535000000000002	-0.0	-0.0	-0.0	-2.4721133708953857	-9.61023998260498	-793.2186279296875	-0.0	-0.0	-0.0	-0.0	-0.0	-0.0	-0.0	-0.0	-0.0	-0.0	-0.0	-0.0
0.4540000000000002	-0.0	-0.0	-0.0	-2.5233657360076904	-9.626083374023438	-793.6206665039062	-0.0	-0.0	-0.0	-0.0	-0.0	-0.0	-0.0	-0.0	-0.0	-0.0	-0.0	-0.0
0.4545000000000002	-0.0	-0.0	-0.0	-2.8799519538879395	-9.034139633178713	-792.472412109375	-0.0	-0.0	-0.0	-0.0	-0.0	-0.0	-0.0	-0.0	-0.0	-0.0	-0.0	-0.0
0.4550000000000002	-0.0	-0.0	-0.0	-2.829758644104004	-8.613561630249023	-793.7860717773438	-0.0	-0.0	-0.0	-0.0	-0.0	-0.0	-0.0	-0.0	-0.0	-0.0	-0.0	-0.0
0.4555000000000002	-0.0	-0.0	-0.0	-2.781657457351685	-8.362140655517578	-794.267822265625	-0.0	-0.0	-0.0	-0.0	-0.0	-0.0	-0.0	-0.0	-0.0	-0.0	-0.0	-0.0
0.4560000000000002	-0.0	-0.0	-0.0	-3.162992000579834	-7.899973392486572	-795.297119140625	-0.0	-0.0	-0.0	-0.0	-0.0	-0.0	-0.0	-0.0	-0.0	-0.0	-0.0	-0.0
0.4565000000000002	-0.0	-0.0	-0.0	-4.013892650604248	-7.673633575439453	-795.4900512695312	-0.0	-0.0	-0.0	-0.0	-0.0	-0.0	-0.0	-0.0	-0.0	-0.0	-0.0	-0.0
0.4570000000000002	-0.0	-0.0	-0.0	-3.1789214611053467	-7.470640182495117	-794.9434204101562	-0.0	-0.0	-0.0	-0.0	-0.0	-0.0	-0.0	-0.0	-0.0	-0.0	-0.0	-0.0
0.4575000000000002	-0.0	-0.0	-0.0	-3.227971076965332	-6.717535972595215	-793.948486328125	-0.0	-0.0	-0.0	-0.0	-0.0	-0.0	-0.0	-0.0	-0.0	-0.0	-0.0	-0.0
0.4580000000000002	-0.0	-0.0	-0.0	-3.3735291957855225	-6.48321008682251	-793.0845336914062	-0.0	-0.0	-0.0	-0.0	-0.0	-0.0	-0.0	-0.0	-0.0	-0.0	-0.0	-0.0
0.4585000000000002	-0.0	-0.0	-0.0	-3.52878475189209	-6.813510417938232	-794.1707763671875	-0.0	-0.0	-0.0	-0.0	-0.0	-0.0	-0.0	-0.0	-0.0	-0.0	-0.0	-0.0
0.4590000000000002	-0.0	-0.0	-0.0	-3.8360519409179688	-5.926032543182373	-796.001953125	-0.0	-0.0	-0.0	-0.0	-0.0	-0.0	-0.0	-0.0	-0.0	-0.0	-0.0	-0.0
0.4595000000000002	-0.0	-0.0	-0.0	-3.707604169845581	-5.98837947845459	-795.6719360351562	-0.0	-0.0	-0.0	-0.0	-0.0	-0.0	-0.0	-0.0	-0.0	-0.0	-0.0	-0.0
0.4600000000000002	-0.0	-0.0	-0.0	-3.780284404754639	-5.292106628417969	-795.4935913085938	-0.0	-0.0	-0.0	-0.0	-0.0	-0.0	-0.0	-0.0	-0.0	-0.0	-0.0	-0.0
0.4605000000000002	-0.0	-0.0	-0.0	-4.298903465270996	-5.11400032043457	-796.9024047851562	-0.0	-0.0	-0.0	-0.0	-0.0	-0.0	-0.0	-0.0	-0.0	-0.0	-0.0	-0.0
0.4610000000000002	-0.0	-0.0	-0.0	-3.607065916061402	-4.429818153381348	-796.6405029296875	-0.0	-0.0	-0.0	-0.0	-0.0	-0.0	-0.0	-0.0	-0.0	-0.0	-0.0	-0.0
0.4615000000000002	-0.0	-0.0	-0.0	-3.3346099853515625	-4.218266010284424	-795.6659545898438	-0.0	-0.0	-0.0	-0.0	-0.0	-0.0	-0.0	-0.0	-0.0	-0.0	-0.0	-0.0
0.4620000000000002	-0.0	-0.0	-0.0	-3.606667041778565	-3.6331067085266113	-794.50341796875	-0.0	-0.0	-0.0	-0.0	-0.0	-0.0	-0.0	-0.0	-0.0	-0.0	-0.0	-0.0
0.4625000000000002	-0.0	-0.0	-0.0	-3.3558952808380127	-3.832607269287109	-796.5714111328125	-0.0	-0.0	-0.0	-0.0	-0.0	-0.0	-0.0	-0.0	-0.0	-0.0	-0.0	-0.0
0.4630000000000002	-0.0	-0.0	-0.0	-3.156590461730957	-3.3222227096557617	-797.6158447265625	-0.0	-0.0	-0.0	-0.0	-0.0	-0.0	-0.0	-0.0	-0.0	-0.0	-0.0	-0.0
0.4635000000000002	-0.0	-0.0	-0.0	-3.3695261478424072	-2.245429039001465	-797.6163940429688	-0.0	-0.0	-0.0	-0.0	-0.0	-0.0	-0.0	-0.0	-0.0	-0.0	-0.0	-0.0
0.4640000000000002	-0.0	-0.0	-0.0	-2.995691061019897	-1.9062035083770752	-798.9613647460938	-0.0	-0.0	-0.0	-0.0	-0.0	-0.0	-0.0	-0.0	-0.0	-0.0	-0.0	-0.0
0.4645000000000002	-0.0	-0.0	-0.0	-3.0903003215789795	-1.1016035079956057	-799.599365234375	-0.0	-0.0	-0.0	-0.0	-0.0	-0.0	-0.0	-0.0	-0.0	-0.0	-0.0	-0.0
0.4650000000000002	-0.0	-0.0	-0.0	-2.7829065322875977	-1.195730209350586	-800.4525146484375	-0.0	-0.0	-0.0	-0.0	-0.0	-0.0	-0.0	-0.0	-0.0	-0.0	-0.0	-0.0
0.4655000000000002	-0.0	-0.0	-0.0	-2.8721811771392822	-0.1937053501605987	-801.2271118164062	-0.0	-0.0	-0.0	-0.0	-0.0	-0.0	-0.0	-0.0	-0.0	-0.0	-0.0	-0.0
0.4660000000000002	-0.0	-0.0	-0.0	-3.5333759784698486	0.5172759294509888	-803.4906616210938	-0.0	-0.0	-0.0	-0.0	-0.0	-0.0	-0.0	-0.0	-0.0	-0.0	-0.0	-0.0
0.4665000000000002	-0.0	-0.0	-0.0	-3.909008264541626	1.6583542823791504	-802.9171142578125	-0.0	-0.0	-0.0	-0.0	-0.0	-0.0	-0.0	-0.0	-0.0	-0.0	-0.0	-0.0
0.4670000000000002	-0.0	-0.0	-0.0	-4.1213202476501465	2.9247066974639893	-802.63427734375	-0.0	-0.0	-0.0	-0.0	-0.0	-0.0	-0.0	-0.0	-0.0	-0.0	-0.0	-0.0
0.4675000000000002	-0.0	-0.0	-0.0	-4.924288272857666	3.316178798675537	-802.7078247070312	-0.0	-0.0	-0.0	-0.0	-0.0	-0.0	-0.0	-0.0	-0.0	-0.0	-0.0	-0.0
0.4680000000000002	-0.0	-0.0	-0.0	-5.727588176727295	3.2267935276031494	-800.3761596679688	-0.0	-0.0	-0.0	-0.0	-0.0	-0.0	-0.0	-0.0	-0.0	-0.0	-0.0	-0.0
0.4685000000000002	-0.0	-0.0	-0.0	-5.477588653564453	2.6560769081115723	-800.09375	-0.0	-0.0	-0.0	-0.0	-0.0	-0.0	-0.0	-0.0	-0.0	-0.0	-0.0	-0.0
0.4690000000000002	-0.0	-0.0	-0.0	-6.279906272888184	1.5870985984802246	-799.3880004882812	-0.0	-0.0	-0.0	-0.0	-0.0	-0.0	-0.0	-0.0	-0.0	-0.0	-0.0	-0.0
0.4695000000000002	-0.0	-0.0	-0.0	-6.333946228027344	1.194603443145752	-801.9979858398438	-0.0	-0.0	-0.0	-0.0	-0.0	-0.0	-0.0	-0.0	-0.0	-0.0	-0.0	-0.0
0.4700000000000002	-0.0	-0.0	-0.0	-6.530415058135986	0.5528138875961304	-803.0637817382812	-0.0	-0.0	-0.0	-0.0	-0.0	-0.0	-0.0	-0.0	-0.0	-0.0	-0.0	-0.0
0.4705000000000002	-0.0	-0.0	-0.0	-6.779998779296875	-0.338435024023056	-804.3953857421875	-0.0	-0.0	-0.0	-0.0	-0.0	-0.0	-0.0	-0.0	-0.0	-0.0	-0.0	-0.0
0.4710000000000002	-0.0	-0.0	-0.0	-6.834486961364746	-0.713043212890625	-804.1251220703125	-0.0	-0.0	-0.0	-0.0	-0.0	-0.0	-0.0	-0.0	-0.0	-0.0	-0.0	-0.0
0.4715000000000002	-0.0	-0.0	-0.0	-7.10233736038208	-1.37339448928833	-805.3224487304688	-0.0	-0.0	-0.0	-0.0	-0.0	-0.0	-0.0	-0.0	-0.0	-0.0	-0.0	-0.0
0.4720000000000002	-0.0	-0.0	-0.0	-7.54629373550415	-1.9951491355896	-806.6629638671875	-0.0	-0.0	-0.0	-0.0	-0.0	-0.0	-0.0	-0.0	-0.0	-0.0	-0.0	-0.0
0.4725000000000002	-0.0	-0.0	-0.0	-7.724560260772705	-2.3357510566711426	-806.455322265625	-0.0	-0.0	-0.0	-0.0	-0.0	-0.0	-0.0	-0.0	-0.0	-0.0	-0.0	-0.0
0.4730000000000002	-0.0	-0.0	-0.0	-7.79522705078125	-2.40652084350586	-809.6956176757812	-0.0	-0.0	-0.0	-0.0	-0.0	-0.0	-0.0	-0.0	-0.0	-0.0	-0.0	-0.0
0.4735000000000002	-0.0	-0.0	-0.0	-7.813549995422363	-2.5446155071258545	-808.5625	-0.0	-0.0	-0.0	-0.0	-0.0	-0.0	-0.0	-0.0	-0.0	-0.0	-0.0	-0.0
0.4740000000000002	-0.0	-0.0	-0.0	-7.7205705642700195	-1.767670512199402	-807.1039428710938	-0.0	-0.0	-0.0	-0.0	-0.0	-0.0	-0.0	-0.0	-0.0	-0.0	-0.0	-0.0
0.4745000000000002	-0.0	-0.0	-0.0	-7.601522445678711	-1.964799404144287	-807.7225341796875	-0.0	-0.0	-0.0	-0.0	-0.0	-0.0	-0.0	-0.0	-0.0	-0.0	-0.0	-0.0
0.4750000000000002	-0.0	-0.0	-0.0	-7.460539817810059	-1.6519014835357666	-807.0328979492188	-0.0	-0.0	-0.0	-0.0	-0.0	-0.0	-0.0	-0.0	-0.0	-0.0	-0.0	-0.0
0.4755000000000002	-0.0	-0.0	-0.0	-7.62041711807251	-1.0883100032806396	-806.4583740234375	-0.0	-0.0	-0.0	-0.0	-0.0	-0.0	-0.0	-0.0	-0.0	-0.0	-0.0	-0.0
0.4760000000000002	-0.0	-0.0	-0.0	-8.042854309082031	-0.877408504486084	-806.513916015625	-0.0	-0.0	-0.0	-0.0	-0.0	-0.0	-0.0	-0.0	-0.0	-0.0	-0.0	-0.0
0.4765000000000002	-0.0	-0.0	-0.0	-7.963943004608154	-0.7266294956207275	-805.1754150390625	-0.0	-0.0	-0.0	-0.0	-0.0	-0.0	-0.0	-0.0	-0.0	-0.0	-0.0	-0.0
0.4770000000000002	-0.0	-0.0	-0.0	-8.677960395812988	-0.4968993663787842	-805.7535400390625	-0.0	-0.0	-0.0	-0.0	-0.0	-0.0	-0.0	-0.0	-0.0	-0.0	-0.0	-0.0
0.4775000000000002	-0.0	-0.0	-0.0	-9.239848136901855	-0.8591902256011963	-806.2864379882812	-0.0	-0.0	-0.0	-0.0	-0.0	-0.0	-0.0	-0.0	-0.0	-0.0	-0.0	-0.0
0.4780000000000002	-0.0	-0.0	-0.0	-8.914761543273926	-0.560149073600769	-806.1834716796875	-0.0	-0.0	-0.0	-0.0	-0.0	-0.0	-0.0	-0.0	-0.0	-0.0	-0.0	-0.0
0.4785000000000002	-0.0	-0.0	-0.0	-9.2269926071167	-0.7447606921195984	-807.1419067382812	-0.0	-0.0	-0.0	-0.0	-0.0	-0.0	-0.0	-0.0	-0.0	-0.0	-0.0	-0.0
0.4790000000000002	-0.0	-0.0	-0.0	-9.188682556152344	-0.7898331880569458	-805.3262939453125	-0.0	-0.0	-0.0	-0.0	-0.0	-0.0	-0.0	-0.0	-0.0	-0.0	-0.0	-0.0
0.4795000000000002	-0.0	-0.0	-0.0	-9.142881393432615	-1.349006414413452	-805.803955078125	-0.0	-0.0	-0.0	-0.0	-0.0	-0.0	-0.0	-0.0	-0.0	-0.0	-0.0	-0.0
0.4800000000000002	-0.0	-0.0	-0.0	-9.188682556152344	-1.4572150707244873	-807.1395263671875	-0.0	-0.0	-0.0	-0.0	-0.0	-0.0	-0.0	-0.0	-0.0	-0.0	-0.0	-0.0
0.4805000000000002	-0.0	-0.0	-0.0	-9.049118995666504	-1.3837043046951294	-807.4462890625	-0.0	-0.0	-0.0	-0.0	-0.0	-0.0	-0.0	-0.0	-0.0	-0.0	-0.0	-0.0
0.4810000000000002	-0.0	-0.0	-0.0	-8.912843704223633	-1.980334997177124	-806.6629638671875	-0.0	-0.0	-0.0	-0.0	-0.0	-0.0	-0.0	-0.0	-0.0	-0.0	-0.0	-0.0
